<svg xmlns="http://www.w3.org/2000/svg" xmlns:xlink="http://www.w3.org/1999/xlink" width="31" height="30" viewBox="0 0 31 30"><defs><path id="a" d="M875.04 841.98v7.34h-1.46v5.8a2.9 2.9 0 0 1-2.9 2.88h-22.73a2.9 2.9 0 0 1-2.91-2.88v-19.77a2.9 2.9 0 0 1 2.9-2.88h8.64l7.74-4.25a1.76 1.76 0 0 1 2.37.67l2.02 3.58h1.97c1.6 0 2.9 1.3 2.9 2.88v6.62zm-5.69-8.35l.87 1.53h2.18a1.73 1.73 0 0 0-1.72-1.53zm-15.25 1.53h14.78l-3.2-5.71a.6.6 0 0 0-.8-.23zm18.32 19.96v-5.8h-4.25a3.57 3.57 0 0 1-3.58-3.55v-.25c0-1.95 1.6-3.54 3.58-3.54h4.25v-5.67h-24.11a.58.58 0 0 1-.58-.57c0-.32.26-.58.58-.58h3.4l2.78-1.53h-6.54c-.97 0-1.75.77-1.75 1.72v19.77c0 .95.78 1.73 1.75 1.73h22.73c.96 0 1.74-.78 1.74-1.73zm1.46-12h-5.71a2.41 2.41 0 0 0-2.42 2.4v.25c0 1.32 1.08 2.4 2.42 2.4h5.7zm-3.93 2.57c0 .7-.58 1.27-1.29 1.27-.7 0-1.28-.57-1.28-1.27 0-.7.57-1.27 1.28-1.27.71 0 1.29.57 1.29 1.27z"/></defs><desc>Generated with Avocode.</desc><g transform="translate(-845 -828)"><use xlink:href="#a"/></g></svg>