<svg xmlns="http://www.w3.org/2000/svg" xmlns:xlink="http://www.w3.org/1999/xlink" width="30" height="26" viewBox="0 0 30 26"><defs><path id="a" d="M1250.94 844.7a.58.58 0 1 1 0 1.16.58.58 0 0 1-.59-.58c0-.32.26-.58.59-.58zm22.19-2.4c.53.44.87 1.1.87 1.85v.01c0 .74-.34 1.4-.87 1.85.53.45.87 1.1.87 1.85v.07c0 .74-.34 1.4-.87 1.85a2.41 2.41 0 0 1-1.59 4.28h-12.19a6.2 6.2 0 0 1-4.05-1.49 1.64 1.64 0 0 1-1.64 1.49h-9.07a.58.58 0 0 1-.59-.58v-14.94c0-.32.26-.58.59-.58h9.07c.75 0 1.39.5 1.59 1.2a14.08 14.08 0 0 0 5.54-6.38c.26-.6.47-1.26.64-2.04.08-.4.28-.77.56-1.06a2.3 2.3 0 0 1 1.64-.68 2.3 2.3 0 0 1 2.3 2.28l.01.68v.93c-.03 1.8-.52 3.53-1.42 5.07h7.02a2.44 2.44 0 0 1 2.46 2.43v.06c0 .74-.34 1.4-.87 1.85zm-19-2.71a.47.47 0 0 0-.47-.47h-8.49v13.78h5.18v-5.03c0-.32.26-.58.59-.58.32 0 .58.26.58.58v5.03h2.14c.26 0 .47-.2.47-.47V839.6zm15.2 2.7c0-.31.26-.57.59-.57h1.62c.71 0 1.29-.57 1.29-1.27v-.06c0-.7-.58-1.27-1.29-1.27h-8.1a.58.58 0 0 1-.52-.32.57.57 0 0 1 .05-.6 9.27 9.27 0 0 0 1.79-5.32v-.91-.7c0-.61-.51-1.11-1.13-1.11h-.03c-.1 0-.47.02-.76.32-.14.13-.22.3-.27.5-.18.85-.41 1.6-.71 2.25a15.32 15.32 0 0 1-6.55 7.23v10.53l.55.52c.94.9 2.18 1.4 3.49 1.4h12.19c.71 0 1.29-.58 1.29-1.28 0-.7-.58-1.27-1.29-1.27h-1.62a.58.58 0 0 1-.59-.58c0-.32.26-.58.59-.58h1.62c.71 0 1.29-.57 1.29-1.27v-.07c0-.7-.58-1.27-1.29-1.27h-1.62a.58.58 0 0 1-.59-.58c0-.32.26-.58.59-.58h1.62c.71 0 1.29-.57 1.29-1.27v-.01c0-.7-.58-1.27-1.29-1.27h-1.62a.58.58 0 0 1-.59-.58z"/></defs><desc>Generated with Avocode.</desc><g transform="translate(-1244 -829)"><use xlink:href="#a"/></g></svg>