<svg xmlns="http://www.w3.org/2000/svg" xmlns:xlink="http://www.w3.org/1999/xlink" width="30" height="26" viewBox="0 0 30 26"><defs><path id="a" d="M475 846.73v4.92c0 .25-.21.46-.47.46H473v.03c0 1.6-1.34 2.92-2.98 2.92a2.95 2.95 0 0 1-2.97-2.92v-.03h-10.59v.03c0 1.6-1.33 2.92-2.97 2.92a2.95 2.95 0 0 1-2.98-2.92v-.03h-2.54a.96.96 0 0 1-.97-.95v-1.02h-1.53a.47.47 0 0 1-.47-.46c0-.25.21-.46.47-.46h4.5c.27 0 .48.2.48.46s-.21.46-.47.46h-2.04v1.02l.03.03h2.7a2.97 2.97 0 0 1 2.82-1.97c1.3 0 2.4.82 2.8 1.97h9.75v-3.48c0-.25.21-.46.47-.46s.47.21.47.46v3.48h.23a2.98 2.98 0 0 1 2.81-1.97c1.3 0 2.4.82 2.81 1.97h1.23v-2.03h-.53c-.81 0-1.47-.65-1.47-1.45v-.98c0-.25.2-.46.47-.46h1.46c-.2-.6-.78-1.04-1.46-1.04h-5.55v.52c0 .25-.2.46-.47.46a.46.46 0 0 1-.47-.46v-8.36a.03.03 0 0 0-.03-.03h-18.04a.03.03 0 0 0-.03.03v8.36c0 .25-.2.46-.47.46a.47.47 0 0 1-.47-.46v-8.36c0-.52.44-.95.97-.95h6.58l-4-1.57a.46.46 0 0 1-.26-.6c.1-.24.37-.35.61-.26l3.28 1.29c-1-.63-1.99-1.32-2.36-1.8-.73-.94-.55-2.3.41-3.01a2.22 2.22 0 0 1 3.07.4c.53.69 1.24 2.62 1.7 3.98.45-1.36 1.15-3.29 1.69-3.98a2.22 2.22 0 0 1 3.07-.4c.95.72 1.14 2.07.4 3a11 11 0 0 1-2.35 1.8l3.27-1.28c.24-.1.52.02.61.26.1.24-.02.5-.26.6l-4 1.57h6.58c.54 0 .97.43.97.95v1.02h3.54c1.09 0 1.97.86 1.97 1.93v.5c0 .21-.16.4-.37.44l.78 3.05a2.45 2.45 0 0 1 2.1 2.4zm-18.81-11.3c-.47-1.43-1.19-3.4-1.64-3.98a1.26 1.26 0 0 0-1.75-.23c-.55.41-.65 1.18-.23 1.72.16.2.7.73 2.56 1.86l1.06.62zm2.67-.63c1.85-1.13 2.4-1.65 2.56-1.86.42-.54.31-1.31-.23-1.72a1.26 1.26 0 0 0-1.75.23c-.46.59-1.17 2.55-1.64 3.97l1.06-.62zm8.12 5.57h4.57v-.03c0-.56-.46-1.01-1.03-1.01h-3.54zm4.94 3.93l-.76-3h-4.18v3zm-16.4 7.84c0-1.1-.91-2-2.03-2-1.13 0-2.04.9-2.04 2s.91 2 2.04 2c1.12 0 2.03-.9 2.03-2zm16.54 0c0-1.1-.92-2-2.04-2s-2.04.9-2.04 2 .92 2 2.04 2 2.04-.9 2.04-2zm2-3.9v-1.05H473v.52c0 .3.23.53.53.53zm-19.6 3.9c0 .52-.44.95-.97.95a.96.96 0 0 1-.97-.95c0-.53.43-.95.97-.95.53 0 .97.42.97.95zm16.53 0c0 .52-.43.95-.97.95a.96.96 0 0 1-.97-.95c0-.53.44-.95.97-.95.54 0 .97.42.97.95zm-6.01-2.46c0 .26-.21.46-.47.46h-7.02a.47.47 0 0 1-.47-.46c0-.25.21-.46.47-.46h7.02c.26 0 .47.2.47.46zm-12.03-1.97c0 .26-.2.47-.47.47h-6a.47.47 0 0 1-.48-.47c0-.25.21-.46.47-.46h6.01c.26 0 .47.21.47.46zm0-6.88c0 .26-.2.46-.47.46h-1.53v1.05h1.03c.26 0 .47.2.47.46 0 .25-.2.46-.47.46h-1.03v1.5c0 .26-.21.47-.47.47a.47.47 0 0 1-.47-.47v-3.93c0-.25.21-.46.47-.46h2c.26 0 .47.2.47.46zm3.93 3.68c.15.21.09.5-.13.64a.47.47 0 0 1-.65-.13l-.86-1.27h-.78v1.01c0 .26-.21.47-.47.47a.47.47 0 0 1-.47-.47v-3.93c0-.25.2-.46.47-.46h1.25c.95 0 1.72.76 1.72 1.7 0 .58-.3 1.1-.78 1.4zm-.86-2.45a.78.78 0 0 0-.78-.77h-.78v1.54h.78c.43 0 .78-.35.78-.77zm4.45 2.7c0 .26-.21.47-.47.47h-2a.47.47 0 0 1-.47-.47v-3.93c0-.25.2-.46.47-.46h2c.26 0 .47.2.47.46s-.21.46-.47.46h-1.53v1.05h1.03c.26 0 .47.2.47.46 0 .25-.21.46-.47.46h-1.03v1.04H460c.26 0 .47.21.47.47zm3.5 0c0 .26-.2.47-.46.47h-2a.47.47 0 0 1-.48-.47v-3.93c0-.25.21-.46.47-.46h2c.27 0 .48.2.48.46s-.21.46-.47.46h-1.54v1.05h.53c.26 0 .47.2.47.46 0 .25-.2.46-.47.46h-.53v1.04h1.54c.26 0 .47.21.47.47z"/></defs><desc>Generated with Avocode.</desc><g transform="translate(-445 -830)"><use xlink:href="#a"/></g></svg>