<svg xmlns="http://www.w3.org/2000/svg" xmlns:xlink="http://www.w3.org/1999/xlink" width="18" height="23" viewBox="0 0 18 23"><defs><path id="5qlza" d="M1459.25 835.19a4.83 4.83 0 0 0 1.15-3.52 4.96 4.96 0 0 0-3.26 1.67 4.6 4.6 0 0 0-1.17 3.4 4.1 4.1 0 0 0 3.28-1.55zm2.78 8.17c-.02-2.78 2.29-4.12 2.39-4.19a5.17 5.17 0 0 0-4.04-2.18c-1.72-.17-3.36 1.01-4.23 1.01-.88 0-2.22-.98-3.65-.95a5.41 5.41 0 0 0-4.57 2.75c-1.95 3.37-.5 8.36 1.4 11.09.92 1.33 2.03 2.84 3.49 2.78 1.4-.05 1.92-.9 3.62-.9 1.69 0 2.16.9 3.65.87 1.5-.02 2.46-1.36 3.38-2.7 1.07-1.55 1.5-3.05 1.53-3.13-.03-.01-2.94-1.12-2.97-4.45z"/></defs><g><g transform="translate(-1447 -831)"><use xlink:href="#5qlza"/></g></g></svg>