<svg xmlns="http://www.w3.org/2000/svg" xmlns:xlink="http://www.w3.org/1999/xlink" width="45" height="50" viewBox="0 0 45 50"><defs><path id="67oza" d="M1338.4 1646.7l3.45-32.57h6.03v2.06a3.17 3.17 0 0 0 1.05 6.16 3.17 3.17 0 0 0 1.04-6.16v-2.06h17v2.06a3.17 3.17 0 0 0 1.05 6.16 3.17 3.17 0 0 0 1.04-6.16v-2.06h6.28l3.44 32.57zm10.59-28.46c.55 0 .98.44.98 1s-.43 1-.98 1a.98.98 0 0 1-.99-1c0-.56.43-1 .99-1zm1.1-8.4c0-4.74 3.82-8.6 8.5-8.6s8.5 3.86 8.5 8.6v2.11h-17zm18.1 8.4c.56 0 1 .44 1 1s-.44 1-1 1a.98.98 0 0 1-.98-1c0-.56.43-1 .99-1zm12.75 29.51l-3.7-34.8c-.06-.56-.55-1-1.1-1h-6.84v-2.12c0-5.97-4.8-10.83-10.7-10.83a10.78 10.78 0 0 0-10.72 10.83v2.12h-7.02c-.55 0-1.04.44-1.1 1l-3.7 34.8c-.06.32.06.63.25.88.18.24.49.37.8.37h42.78c.31 0 .62-.13.8-.37.19-.25.31-.56.25-.88z"/></defs><g><g transform="translate(-1336 -1599)"><use xlink:href="#67oza"/></g></g></svg>