<svg xmlns="http://www.w3.org/2000/svg" xmlns:xlink="http://www.w3.org/1999/xlink" width="32" height="18" viewBox="0 0 32 18"><defs><path id="kcjfa" d="M1201.13 500.88h-.38a3.3 3.3 0 0 0-6.3 0h-.39v-7.03h3.48l3.59 3.87zm-3.54 2.33c-.78 0-1.41-.63-1.41-1.4a1.41 1.41 0 1 1 2.83 0c0 .77-.64 1.4-1.42 1.4zm-5.4-2.33h-4.86a3.3 3.3 0 0 0-6.3 0h-.87v-11.95h12.03zm-8.01 2.33c-.78 0-1.42-.63-1.42-1.4 0-.78.64-1.4 1.42-1.4.78 0 1.41.62 1.41 1.4 0 .77-.63 1.4-1.41 1.4zm14.18-11.22h-4.3v-4.92h-15.78v15.67h2.74a3.3 3.3 0 0 0 6.31 0h7.11a3.3 3.3 0 0 0 6.3 0h2.26V497z"/><path id="kcjfb" d="M1172.73 488.93v-1.86h3.68v1.86z"/><path id="kcjfc" d="M1172.73 496.38v-1.86h3.68v1.86z"/><path id="kcjfd" d="M1171 492.66v-1.86h5.4v1.86z"/></defs><g><g transform="translate(-1171 -487)"><g><g><g><use xlink:href="#kcjfa"/></g></g></g><g><g><g><use xlink:href="#kcjfb"/></g></g></g><g><g><g><use xlink:href="#kcjfc"/></g></g></g><g><g><g><use xlink:href="#kcjfd"/></g></g></g></g></g></svg>