<svg xmlns="http://www.w3.org/2000/svg" xmlns:xlink="http://www.w3.org/1999/xlink" width="27" height="18" viewBox="0 0 27 18"><defs><path id="p22za" d="M1378.79 490.5v-1.28c0-.8.64-1.44 1.44-1.44h20.54c.8 0 1.44.64 1.44 1.44v1.27zm23.42 10.28c0 .8-.64 1.44-1.44 1.44h-20.54c-.8 0-1.44-.64-1.44-1.44v-7.75h23.42zM1380.23 486a3.23 3.23 0 0 0-3.23 3.22v11.56a3.23 3.23 0 0 0 3.23 3.22h20.54a3.23 3.23 0 0 0 3.23-3.22v-11.56a3.23 3.23 0 0 0-3.23-3.22z"/><path id="p22zb" d="M1381 500.57h4.9c.17 0 .3-.14.3-.32v-.96a.32.32 0 0 0-.3-.31h-4.9a.32.32 0 0 0-.31.31v.96c0 .18.14.32.31.32z"/><path id="p22zc" d="M1395.35 496.12c.5 0 .97.17 1.35.46a2.23 2.23 0 1 1 0 3.53 2.22 2.22 0 1 1-1.35-3.99z"/></defs><g><g transform="translate(-1377 -486)"><g><g><use xlink:href="#p22za"/></g><g><use xlink:href="#p22zb"/></g><g><use xlink:href="#p22zc"/></g></g></g></g></svg>