<svg xmlns="http://www.w3.org/2000/svg" xmlns:xlink="http://www.w3.org/1999/xlink" width="20" height="18" viewBox="0 0 20 18"><defs><path id="bte8a" d="M1388.4 1787.6h11.54c.13 0 .26.04.36.12l3.05 3.16.16-2.48a.6.6 0 0 1 .05-.55c.1-.16.28-.26.48-.26h1.56v-11.31h-17.2zm15.48 5.49a.57.57 0 0 1-.36-.13l-3.8-4.2h-11.9a.58.58 0 0 1-.58-.58v-12.49c0-.32.26-.58.57-.58h18.37c.32 0 .58.26.58.58v12.49c0 .32-.26.58-.58.58h-1.27l-.52 3.47s-.06.75-.5.86z"/></defs><g><g transform="translate(-1387 -1775)"><use xlink:href="#bte8a"/></g></g></svg>