<svg xmlns="http://www.w3.org/2000/svg" xmlns:xlink="http://www.w3.org/1999/xlink" preserveAspectRatio="xMidYMid" width="28" height="26" viewBox="0 0 28 26">
  <defs>
    
  </defs>
  <path d="M19.837,-0.000 C18.532,-0.000 17.284,0.306 16.129,0.911 C15.342,1.322 14.620,1.868 14.000,2.517 C13.380,1.868 12.658,1.322 11.871,0.911 C10.716,0.306 9.468,-0.000 8.163,-0.000 C3.662,-0.000 -0.000,3.748 -0.000,8.356 C-0.000,11.620 1.684,15.086 5.004,18.659 C7.776,21.642 11.171,24.128 13.530,25.689 L14.000,26.000 L14.470,25.689 C16.829,24.128 20.223,21.642 22.996,18.659 C26.316,15.086 28.000,11.620 28.000,8.356 C28.000,3.748 24.338,-0.000 19.837,-0.000 ZM21.741,17.436 C19.263,20.102 16.245,22.369 14.000,23.885 C11.755,22.369 8.736,20.102 6.259,17.436 C3.255,14.205 1.732,11.150 1.732,8.356 C1.732,4.726 4.617,1.773 8.163,1.773 C10.204,1.773 12.079,2.733 13.308,4.407 L14.000,5.350 L14.692,4.407 C15.920,2.733 17.796,1.773 19.837,1.773 C23.383,1.773 26.268,4.726 26.268,8.356 C26.268,11.150 24.745,14.205 21.741,17.436 Z" class="cls-1"/>
</svg>
