<?xml version="1.0" encoding="UTF-8"?>
<!DOCTYPE svg PUBLIC "-//W3C//DTD SVG 1.1//EN" "http://www.w3.org/Graphics/SVG/1.1/DTD/svg11.dtd">
<!-- Creator: CorelDRAW X7 -->
<svg xmlns="http://www.w3.org/2000/svg" xml:space="preserve" width="155.5mm" height="44.3542mm" version="1.1" style="shape-rendering:geometricPrecision; text-rendering:geometricPrecision; image-rendering:optimizeQuality; fill-rule:evenodd; clip-rule:evenodd"
viewBox="0 0 14772 4213"
 xmlns:xlink="http://www.w3.org/1999/xlink">
 <defs>
  <style type="text/css">
   <![CDATA[
    .fil0 {fill:#2B2A29;fill-rule:nonzero}
   ]]>
  </style>
 </defs>
 <g id="Layer_x0020_1">
  <metadata id="CorelCorpID_0Corel-Layer"/>
  <g id="_629764352">
   <path class="fil0" d="M7238 313c-111,0 -230,304 -230,410 0,34 15,67 53,67 129,0 234,-278 234,-399 0,-63 -37,-78 -57,-78zm-202 -301c106,-6 126,-6 187,-12 -44,120 -46,129 -69,206l-60 193c17,-29 74,-117 160,-117 61,0 126,45 126,156 0,200 -192,377 -331,377 -88,0 -118,-79 -118,-140 0,-44 21,-96 32,-135l131 -425c6,-19 9,-29 9,-39 0,-26 -24,-35 -51,-36l-23 -1 7 -27z"/>
   <path class="fil0" d="M7452 506l-1 -30c-7,-165 63,-194 93,-194 46,0 70,46 83,74 59,128 79,296 82,410 39,-72 91,-201 91,-293 0,-31 -6,-57 -21,-82 -17,-28 -37,-45 -37,-70 0,-24 18,-39 39,-39 53,0 60,61 60,122 0,260 -261,727 -441,727 -37,0 -54,-19 -54,-40 0,-12 5,-39 52,-42l19 0c4,0 8,1 13,1l15 0c69,-3 106,-43 133,-80 30,-41 56,-89 56,-170 0,-39 -19,-167 -28,-216 -12,-61 -56,-230 -92,-230 -11,0 -38,21 -34,127l1 25 -29 0z"/>
  </g>
  <polygon class="fil0" points="0,1807 165,1807 1110,3206 2055,1807 2219,1807 2219,4173 2044,4173 2044,2118 1113,3480 1100,3480 168,2118 168,4173 0,4173 "/>
  <path class="fil0" d="M7254 4011c656,0 1070,-450 1070,-1021 0,-561 -414,-1021 -1070,-1021l-608 0 0 2042 608 0zm-783 -2204l783 0c740,0 1251,510 1251,1183 0,666 -511,1183 -1251,1183l-783 0 0 -2366z"/>
  <polygon class="fil0" points="9440,1807 9605,1807 11229,3865 11229,1807 11397,1807 11397,4173 11266,4173 9608,2070 9608,4173 9440,4173 "/>
  <path class="fil0" d="M13554 4055c-585,0 -1059,-477 -1059,-1065 0,-588 474,-1065 1059,-1065 585,0 1060,477 1060,1065 0,588 -475,1065 -1060,1065zm0 -2289c-672,0 -1217,548 -1217,1224 0,676 545,1223 1217,1223 673,0 1218,-547 1218,-1223 0,-676 -545,-1224 -1218,-1224z"/>
  <path class="fil0" d="M4332 4055c-585,0 -1060,-477 -1060,-1065 0,-588 475,-1065 1060,-1065 584,0 1059,477 1059,1065 0,588 -475,1065 -1059,1065zm0 -2289c-673,0 -1218,548 -1218,1224 0,676 545,1223 1218,1223 672,0 1217,-547 1217,-1223 0,-676 -545,-1224 -1217,-1224z"/>
 </g>
</svg>
