<?xml version="1.0" encoding="UTF-8"?>
<!DOCTYPE svg PUBLIC "-//W3C//DTD SVG 1.1//EN" "http://www.w3.org/Graphics/SVG/1.1/DTD/svg11.dtd">
<!-- Creator: CorelDRAW X7 -->
<svg xmlns="http://www.w3.org/2000/svg" xml:space="preserve" width="51.7887mm" height="6.1299mm" version="1.1" style="shape-rendering:geometricPrecision; text-rendering:geometricPrecision; image-rendering:optimizeQuality; fill-rule:evenodd; clip-rule:evenodd"
viewBox="0 0 4598 544"
 xmlns:xlink="http://www.w3.org/1999/xlink">
 <defs>
  <style type="text/css">
   <![CDATA[
    .fil0 {fill:black}
    .fil1 {fill:#F20022}
   ]]>
  </style>
 </defs>
 <g id="Слой_x0020_1">
  <metadata id="CorelCorpID_0Corel-Layer"/>
  <path class="fil0" d="M1238 535l91 0 0 -376 165 247 3 0 166 -248 0 377 92 0 0 -526 -98 0 -160 249 -160 -249 -99 0 0 526zm994 9c161,0 275,-124 275,-272 0,-149 -112,-272 -274,-272 -162,0 -276,124 -276,272 0,150 113,272 275,272zm1 -85c-104,0 -179,-85 -179,-187 0,-104 73,-187 178,-187 104,0 178,85 178,187 0,104 -72,187 -177,187zm476 76l196 0c166,0 280,-115 280,-263 0,-149 -114,-263 -280,-263l-196 0 0 526zm93 -84l0 -358 103 0c111,0 183,76 183,179 0,105 -72,179 -183,179l-103 0zm585 84l91 0 0 -374 290 374 77 0 0 -526 -90 0 0 364 -282 -364 -86 0 0 526zm935 9c161,0 276,-124 276,-272 0,-149 -113,-272 -275,-272 -161,0 -276,124 -276,272 0,150 113,272 275,272zm1 -85c-104,0 -179,-85 -179,-187 0,-104 73,-187 178,-187 104,0 179,85 179,187 0,104 -73,187 -178,187z"/>
  <path class="fil1" d="M0 535l244 0c117,0 194,-50 194,-144 0,-73 -43,-108 -104,-129 39,-21 75,-55 75,-118 0,-37 -12,-65 -35,-88 -30,-30 -78,-47 -138,-47l-236 0 0 526zm91 -304l0 -140 133 0c59,0 92,26 92,67 0,49 -39,73 -99,73l-126 0zm0 222l0 -144 147 0c72,0 108,26 108,71 0,48 -39,73 -102,73l-153 0zm674 82l93 0 0 -210 209 -316 -106 0 -149 233 -147 -233 -109 0 209 319 0 207z"/>
 </g>
</svg>
