<svg xmlns="http://www.w3.org/2000/svg" xmlns:xlink="http://www.w3.org/1999/xlink" preserveAspectRatio="xMidYMid" width="17" height="10" viewBox="0 0 17 10">
  <defs>
    
  </defs>
  <path d="M16.988,0.842 C16.987,0.377 16.596,-0.000 16.117,-0.000 C16.116,-0.000 16.116,-0.000 16.116,-0.000 L0.870,0.020 C0.637,0.020 0.419,0.108 0.254,0.268 C0.090,0.427 -0.000,0.639 0.000,0.864 L0.012,9.158 C0.012,9.383 0.103,9.595 0.268,9.754 C0.432,9.913 0.651,10.000 0.883,10.000 C0.883,10.000 0.884,10.000 0.884,10.000 L16.130,9.980 C16.610,9.979 17.000,9.600 16.999,9.135 L16.988,0.842 ZM15.160,0.844 L8.500,5.326 L1.828,0.862 L15.160,0.844 ZM11.317,6.172 L15.267,9.138 L1.722,9.156 L5.696,6.172 C5.886,6.029 5.920,5.765 5.773,5.581 C5.625,5.397 5.352,5.363 5.162,5.506 L0.882,8.719 L0.871,1.247 L8.254,6.186 C8.328,6.236 8.415,6.260 8.501,6.260 C8.588,6.260 8.675,6.235 8.750,6.185 L16.118,1.227 L16.129,8.718 L11.850,5.506 C11.660,5.363 11.387,5.397 11.240,5.581 C11.092,5.764 11.127,6.029 11.317,6.172 Z" class="cls-1"/>
</svg>
