<svg xmlns="http://www.w3.org/2000/svg" xmlns:xlink="http://www.w3.org/1999/xlink" preserveAspectRatio="xMidYMid" width="10" height="14.031" viewBox="0 0 10 14.031">
  <defs>
    
  </defs>
  <path d="M5.341,13.852 C5.162,14.054 4.850,14.054 4.671,13.852 C4.481,13.637 0.006,8.542 0.006,5.072 C0.006,2.275 2.249,-0.000 5.006,-0.000 C7.763,-0.000 10.006,2.275 10.006,5.072 C10.006,8.542 5.532,13.637 5.341,13.852 ZM5.006,0.913 C2.746,0.913 0.906,2.779 0.906,5.072 C0.906,7.453 3.500,11.033 5.006,12.848 C6.512,11.033 9.106,7.453 9.106,5.072 C9.106,2.779 7.267,0.913 5.006,0.913 ZM2.490,5.072 C2.490,3.665 3.619,2.520 5.006,2.520 C6.393,2.520 7.522,3.665 7.522,5.072 C7.522,6.478 6.393,7.623 5.006,7.623 C3.619,7.623 2.490,6.478 2.490,5.072 ZM6.621,5.072 C6.621,4.168 5.897,3.433 5.006,3.433 C4.115,3.433 3.391,4.168 3.391,5.072 C3.391,5.975 4.115,6.710 5.006,6.710 C5.897,6.710 6.621,5.975 6.621,5.072 Z" class="cls-1"/>
</svg>
