<svg xmlns="http://www.w3.org/2000/svg" xmlns:xlink="http://www.w3.org/1999/xlink" preserveAspectRatio="xMidYMid" width="54" height="40" viewBox="0 0 54 40">
  <defs>
    
  </defs>
  <path d="M51.553,40.007 L2.462,40.007 C1.106,40.007 0.007,38.908 0.007,37.551 L0.007,2.463 C0.007,1.107 1.106,0.007 2.462,0.007 L51.553,0.007 C52.908,0.007 54.007,1.107 54.007,2.463 L54.007,37.551 C54.007,38.908 52.908,40.007 51.553,40.007 ZM33.144,10.592 C30.801,10.592 28.656,11.456 27.007,12.879 C25.359,11.456 23.214,10.592 20.871,10.592 C15.683,10.592 11.462,14.816 11.462,20.007 C11.462,25.199 15.683,29.423 20.871,29.423 C23.214,29.423 25.359,28.559 27.007,27.136 C28.656,28.559 30.801,29.423 33.144,29.423 C38.332,29.423 42.553,25.199 42.553,20.007 C42.553,14.816 38.332,10.592 33.144,10.592 ZM33.144,26.967 C31.429,26.967 29.857,26.341 28.643,25.307 C29.675,23.796 30.280,21.971 30.280,20.007 C30.280,18.044 29.675,16.219 28.643,14.708 C29.857,13.674 31.429,13.048 33.144,13.048 C36.979,13.048 40.098,16.170 40.098,20.007 C40.098,23.845 36.979,26.967 33.144,26.967 Z" class="cls-1"/>
</svg>
