<svg xmlns="http://www.w3.org/2000/svg" xmlns:xlink="http://www.w3.org/1999/xlink" preserveAspectRatio="xMidYMid" width="10" height="16" viewBox="0 0 10 16">
  <defs>
    
  </defs>
  <path d="M8.706,16.000 L1.284,16.000 C0.571,16.000 -0.005,15.441 -0.005,14.758 L-0.005,1.242 C-0.005,0.555 0.575,-0.000 1.284,-0.000 L8.706,-0.000 C9.418,-0.000 9.995,0.559 9.995,1.242 L9.995,14.755 C9.995,15.441 9.415,15.997 8.706,16.000 ZM0.826,14.755 C0.826,15.000 1.033,15.196 1.284,15.196 L8.702,15.196 C8.957,15.196 9.160,14.996 9.160,14.755 L9.160,12.770 L0.826,12.770 L0.826,14.755 ZM0.826,11.973 L9.160,11.973 L9.160,2.880 L0.826,2.880 L0.826,11.973 ZM9.164,1.242 C9.164,0.997 8.957,0.801 8.706,0.801 L1.284,0.801 C1.033,0.801 0.826,0.997 0.826,1.242 L0.826,2.079 L9.164,2.079 L9.164,1.242 ZM5.836,14.421 L4.150,14.421 C3.919,14.421 3.733,14.241 3.733,14.019 C3.733,13.797 3.919,13.617 4.150,13.617 L5.836,13.617 C6.067,13.617 6.253,13.797 6.253,14.019 C6.253,14.241 6.067,14.421 5.836,14.421 Z" class="cls-1"/>
</svg>
