<svg xmlns="http://www.w3.org/2000/svg" xmlns:xlink="http://www.w3.org/1999/xlink" preserveAspectRatio="xMidYMid" width="21" height="26" viewBox="0 0 21 26">
  <defs>
    
  </defs>
  <path d="M17.427,24.971 C15.586,25.635 13.126,26.000 10.500,26.000 C7.874,26.000 5.414,25.635 3.572,24.971 C0.620,23.907 -0.000,22.364 -0.000,21.256 C-0.000,17.600 1.962,14.385 4.910,12.564 C5.269,13.006 5.673,13.415 6.136,13.784 C3.490,15.270 1.703,18.063 1.703,21.256 C1.703,22.982 5.567,24.334 10.500,24.334 C15.433,24.334 19.297,22.982 19.297,21.256 C19.297,18.063 17.510,15.270 14.863,13.784 C15.327,13.415 15.731,13.006 16.090,12.564 C19.038,14.385 21.000,17.600 21.000,21.256 C21.000,22.364 20.380,23.907 17.427,24.971 ZM10.500,13.661 C7.192,13.661 4.643,10.533 4.643,6.831 C4.643,3.130 7.191,-0.000 10.500,-0.000 C13.808,-0.000 16.357,3.128 16.357,6.831 C16.357,10.531 13.809,13.661 10.500,13.661 ZM10.500,1.666 C8.209,1.666 6.345,3.983 6.345,6.831 C6.345,9.678 8.209,11.995 10.500,11.995 C12.791,11.995 14.654,9.678 14.654,6.831 C14.654,3.983 12.791,1.666 10.500,1.666 Z" class="cls-1"/>
</svg>
