<svg xmlns="http://www.w3.org/2000/svg" xmlns:xlink="http://www.w3.org/1999/xlink" preserveAspectRatio="xMidYMid" width="26" height="26" viewBox="0 0 26 26">
  <defs>
    
  </defs>
  <path d="M25.664,24.137 L19.418,17.891 C20.966,16.003 21.900,13.585 21.900,10.950 C21.900,4.905 16.995,-0.000 10.950,-0.000 C4.900,-0.000 -0.000,4.905 -0.000,10.950 C-0.000,16.995 4.900,21.900 10.950,21.900 C13.585,21.900 15.998,20.972 17.886,19.423 L24.132,25.664 C24.556,26.089 25.240,26.089 25.664,25.664 C26.089,25.246 26.089,24.556 25.664,24.137 ZM10.950,19.720 C6.108,19.720 2.174,15.786 2.174,10.950 C2.174,6.114 6.108,2.174 10.950,2.174 C15.786,2.174 19.726,6.114 19.726,10.950 C19.726,15.786 15.786,19.720 10.950,19.720 Z" class="cls-1"/>
</svg>
