<svg xmlns="http://www.w3.org/2000/svg" xmlns:xlink="http://www.w3.org/1999/xlink" preserveAspectRatio="xMidYMid" width="21.15" height="11.94" viewBox="0 0 21.15 11.94">
  <defs>
    
  </defs>
  <path d="M20.251,9.671 C19.621,8.917 18.880,8.274 18.179,7.592 C17.547,6.976 17.507,6.619 18.015,5.909 C18.570,5.134 19.167,4.388 19.727,3.616 C20.249,2.895 20.784,2.176 21.059,1.312 C21.233,0.763 21.079,0.520 20.514,0.424 C20.417,0.407 20.316,0.406 20.217,0.406 L16.867,0.402 C16.454,0.396 16.226,0.576 16.080,0.941 C15.883,1.434 15.680,1.927 15.445,2.403 C14.912,3.482 14.318,4.525 13.483,5.408 C13.300,5.603 13.097,5.849 12.789,5.748 C12.405,5.608 12.292,4.976 12.298,4.762 L12.294,0.904 C12.220,0.353 12.097,0.107 11.549,0.000 L8.068,0.001 C7.604,0.001 7.371,0.180 7.123,0.470 C6.980,0.637 6.937,0.746 7.231,0.801 C7.808,0.911 8.134,1.284 8.220,1.862 C8.359,2.785 8.349,3.712 8.269,4.639 C8.246,4.909 8.199,5.179 8.091,5.432 C7.923,5.829 7.651,5.910 7.295,5.666 C6.971,5.444 6.744,5.132 6.522,4.819 C5.687,3.642 5.021,2.373 4.478,1.040 C4.321,0.655 4.051,0.421 3.642,0.415 C2.636,0.399 1.631,0.396 0.626,0.416 C0.021,0.427 -0.160,0.720 0.087,1.267 C1.182,3.697 2.400,6.059 3.991,8.210 C4.808,9.315 5.745,10.290 6.957,10.980 C8.330,11.764 9.808,11.999 11.364,11.926 C12.093,11.892 12.312,11.703 12.346,10.978 C12.369,10.483 12.425,9.990 12.670,9.545 C12.911,9.107 13.275,9.024 13.696,9.296 C13.906,9.432 14.083,9.605 14.250,9.788 C14.660,10.236 15.056,10.697 15.482,11.130 C16.016,11.672 16.648,11.992 17.444,11.927 L20.524,11.927 C21.020,11.895 21.277,11.288 20.992,10.736 C20.792,10.349 20.530,10.004 20.251,9.671 Z" class="cls-1"/>
</svg>
