<svg xmlns="http://www.w3.org/2000/svg" xmlns:xlink="http://www.w3.org/1999/xlink" preserveAspectRatio="xMidYMid" width="10" height="18" viewBox="0 0 10 18">
  <defs>
    
  </defs>
  <path d="M9.623,0.003 L7.225,-0.001 C4.530,-0.001 2.789,1.738 2.789,4.429 L2.789,6.472 L0.377,6.472 C0.169,6.472 -0.000,6.636 -0.000,6.839 L-0.000,9.799 C-0.000,10.001 0.169,10.166 0.377,10.166 L2.789,10.166 L2.789,17.633 C2.789,17.836 2.957,18.000 3.166,18.000 L6.312,18.000 C6.521,18.000 6.689,17.835 6.689,17.633 L6.689,10.166 L9.509,10.166 C9.717,10.166 9.886,10.001 9.886,9.799 L9.887,6.839 C9.887,6.742 9.847,6.648 9.777,6.580 C9.706,6.511 9.610,6.472 9.510,6.472 L6.689,6.472 L6.689,4.740 C6.689,3.908 6.893,3.486 8.007,3.486 L9.623,3.485 C9.831,3.485 10.000,3.321 10.000,3.118 L10.000,0.370 C10.000,0.168 9.831,0.003 9.623,0.003 Z" class="cls-1"/>
</svg>
