<svg xmlns="http://www.w3.org/2000/svg" xmlns:xlink="http://www.w3.org/1999/xlink" preserveAspectRatio="xMidYMid" width="18" height="18" viewBox="0 0 18 18">
  <defs>
    
  </defs>
  <path d="M16.200,-0.000 L1.800,-0.000 C0.810,-0.000 -0.000,0.810 -0.000,1.800 L-0.000,16.200 C-0.000,17.190 0.810,18.000 1.800,18.000 L16.200,18.000 C17.190,18.000 18.000,17.190 18.000,16.200 L18.000,1.800 C18.000,0.810 17.190,-0.000 16.200,-0.000 ZM9.000,5.400 C10.980,5.400 12.600,7.020 12.600,9.000 C12.600,10.980 10.980,12.600 9.000,12.600 C7.020,12.600 5.400,10.980 5.400,9.000 C5.400,7.020 7.020,5.400 9.000,5.400 ZM2.250,16.200 C1.980,16.200 1.800,16.020 1.800,15.750 L1.800,8.100 L3.690,8.100 C3.600,8.370 3.600,8.730 3.600,9.000 C3.600,11.970 6.030,14.400 9.000,14.400 C11.970,14.400 14.400,11.970 14.400,9.000 C14.400,8.730 14.400,8.370 14.310,8.100 L16.200,8.100 L16.200,15.750 C16.200,16.020 16.020,16.200 15.750,16.200 L2.250,16.200 ZM16.200,4.050 C16.200,4.320 16.020,4.500 15.750,4.500 L13.950,4.500 C13.680,4.500 13.500,4.320 13.500,4.050 L13.500,2.250 C13.500,1.980 13.680,1.800 13.950,1.800 L15.750,1.800 C16.020,1.800 16.200,1.980 16.200,2.250 L16.200,4.050 Z" class="cls-1"/>
</svg>
