<svg xmlns="http://www.w3.org/2000/svg" xmlns:xlink="http://www.w3.org/1999/xlink" preserveAspectRatio="xMidYMid" width="18" height="15" viewBox="0 0 18 15">
  <defs>
    
  </defs>
  <path d="M17.503,0.271 C16.789,0.705 15.998,1.020 15.157,1.190 C14.484,0.453 13.525,-0.006 12.462,-0.006 C10.422,-0.006 8.769,1.690 8.769,3.781 C8.769,4.077 8.802,4.367 8.865,4.643 C5.796,4.486 3.075,2.977 1.254,0.686 C0.936,1.244 0.754,1.895 0.754,2.590 C0.754,3.904 1.407,5.064 2.397,5.742 C1.791,5.721 1.222,5.550 0.724,5.266 L0.724,5.314 C0.724,7.149 1.997,8.679 3.686,9.028 C3.377,9.114 3.050,9.161 2.713,9.161 C2.475,9.161 2.244,9.137 2.018,9.092 C2.488,10.597 3.851,11.692 5.466,11.723 C4.203,12.739 2.610,13.344 0.881,13.344 C0.582,13.344 0.289,13.326 -0.000,13.292 C1.634,14.366 3.574,14.994 5.660,14.994 C12.453,14.994 16.167,9.222 16.167,4.217 L16.154,3.726 C16.878,3.194 17.506,2.527 18.000,1.768 C17.338,2.069 16.627,2.274 15.880,2.365 C16.642,1.896 17.227,1.153 17.503,0.271 Z" class="cls-1"/>
</svg>
