<svg xmlns="http://www.w3.org/2000/svg" xmlns:xlink="http://www.w3.org/1999/xlink" width="477.175" height="2421" viewBox="0 0 477.175 2421"><svg width="46.243" height="35.324" viewBox="0 0 127 97" id="Check" y="0"><path class="fil0" d="M127 5L35 97 0 55l5-5 30 36 87-86z"></path></svg><svg width="155.5" height="167.638" viewBox="0 0 14772 4213" shape-rendering="geometricPrecision" text-rendering="geometricPrecision" image-rendering="optimizeQuality" fill-rule="evenodd" clip-rule="evenodd" id="Logo--color" y="36"><defs><style>.fil0{fill:#2b2a29;fill-rule:nonzero}</style></defs><g id="Layer_x0020_1"><path class="fil0" d="M7238 313c-111 0-230 304-230 410 0 34 15 67 53 67 129 0 234-278 234-399 0-63-37-78-57-78zM7036 12c106-6 126-6 187-12-44 120-46 129-69 206l-60 193c17-29 74-117 160-117 61 0 126 45 126 156 0 200-192 377-331 377-88 0-118-79-118-140 0-44 21-96 32-135l131-425c6-19 9-29 9-39 0-26-24-35-51-36l-23-1 7-27zm416 494l-1-30c-7-165 63-194 93-194 46 0 70 46 83 74 59 128 79 296 82 410 39-72 91-201 91-293 0-31-6-57-21-82-17-28-37-45-37-70 0-24 18-39 39-39 53 0 60 61 60 122 0 260-261 727-441 727-37 0-54-19-54-40 0-12 5-39 52-42h19c4 0 8 1 13 1h15c69-3 106-43 133-80 30-41 56-89 56-170 0-39-19-167-28-216-12-61-56-230-92-230-11 0-38 21-34 127l1 25h-29z" id="_629764352"></path><path class="fil0" d="M0 1807h165l945 1399 945-1399h164v2366h-175V2118l-931 1362h-13L168 2118v2055H0zm7254 2204c656 0 1070-450 1070-1021 0-561-414-1021-1070-1021h-608v2042h608zm-783-2204h783c740 0 1251 510 1251 1183 0 666-511 1183-1251 1183h-783V1807zm2969 0h165l1624 2058V1807h168v2366h-131L9608 2070v2103h-168zm4114 2248c-585 0-1059-477-1059-1065s474-1065 1059-1065 1060 477 1060 1065-475 1065-1060 1065zm0-2289c-672 0-1217 548-1217 1224s545 1223 1217 1223c673 0 1218-547 1218-1223s-545-1224-1218-1224zM4332 4055c-585 0-1060-477-1060-1065s475-1065 1060-1065c584 0 1059 477 1059 1065s-475 1065-1059 1065zm0-2289c-673 0-1218 548-1218 1224s545 1223 1218 1223c672 0 1217-547 1217-1223s-545-1224-1217-1224z"></path></g></svg><svg width="30" height="26" viewBox="0 0 30 26" id="advant-1" y="204"><defs><path id="a" d="M475 846.73v4.92c0 .25-.21.46-.47.46H473v.03c0 1.6-1.34 2.92-2.98 2.92a2.95 2.95 0 0 1-2.97-2.92v-.03h-10.59v.03c0 1.6-1.33 2.92-2.97 2.92a2.95 2.95 0 0 1-2.98-2.92v-.03h-2.54a.96.96 0 0 1-.97-.95v-1.02h-1.53a.47.47 0 0 1-.47-.46c0-.25.21-.46.47-.46h4.5c.27 0 .48.2.48.46s-.21.46-.47.46h-2.04v1.02l.03.03h2.7a2.97 2.97 0 0 1 2.82-1.97c1.3 0 2.4.82 2.8 1.97h9.75v-3.48c0-.25.21-.46.47-.46s.47.21.47.46v3.48h.23a2.98 2.98 0 0 1 2.81-1.97c1.3 0 2.4.82 2.81 1.97h1.23v-2.03h-.53c-.81 0-1.47-.65-1.47-1.45v-.98c0-.25.2-.46.47-.46h1.46c-.2-.6-.78-1.04-1.46-1.04h-5.55v.52c0 .25-.2.46-.47.46a.46.46 0 0 1-.47-.46v-8.36a.03.03 0 0 0-.03-.03h-18.04a.03.03 0 0 0-.03.03v8.36c0 .25-.2.46-.47.46a.47.47 0 0 1-.47-.46v-8.36c0-.52.44-.95.97-.95h6.58l-4-1.57a.46.46 0 0 1-.26-.6c.1-.24.37-.35.61-.26l3.28 1.29c-1-.63-1.99-1.32-2.36-1.8-.73-.94-.55-2.3.41-3.01a2.22 2.22 0 0 1 3.07.4c.53.69 1.24 2.62 1.7 3.98.45-1.36 1.15-3.29 1.69-3.98a2.22 2.22 0 0 1 3.07-.4c.95.72 1.14 2.07.4 3a11 11 0 0 1-2.35 1.8l3.27-1.28c.24-.1.52.02.61.26.1.24-.02.5-.26.6l-4 1.57h6.58c.54 0 .97.43.97.95v1.02h3.54c1.09 0 1.97.86 1.97 1.93v.5c0 .21-.16.4-.37.44l.78 3.05a2.45 2.45 0 0 1 2.1 2.4zm-18.81-11.3c-.47-1.43-1.19-3.4-1.64-3.98a1.26 1.26 0 0 0-1.75-.23 1.21 1.21 0 0 0-.23 1.72c.16.2.7.73 2.56 1.86l1.06.62zm2.67-.63c1.85-1.13 2.4-1.65 2.56-1.86.42-.54.31-1.31-.23-1.72a1.26 1.26 0 0 0-1.75.23c-.46.59-1.17 2.55-1.64 3.97l1.06-.62zm8.12 5.57h4.57v-.03c0-.56-.46-1.01-1.03-1.01h-3.54zm4.94 3.93l-.76-3h-4.18v3zm-16.4 7.84c0-1.1-.91-2-2.03-2-1.13 0-2.04.9-2.04 2s.91 2 2.04 2c1.12 0 2.03-.9 2.03-2zm16.54 0c0-1.1-.92-2-2.04-2s-2.04.9-2.04 2 .92 2 2.04 2 2.04-.9 2.04-2zm2-3.9v-1.05H473v.52c0 .3.23.53.53.53zm-19.6 3.9c0 .52-.44.95-.97.95a.96.96 0 0 1-.97-.95c0-.53.43-.95.97-.95.53 0 .97.42.97.95zm16.53 0c0 .52-.43.95-.97.95a.96.96 0 0 1-.97-.95c0-.53.44-.95.97-.95.54 0 .97.42.97.95zm-6.01-2.46c0 .26-.21.46-.47.46h-7.02a.47.47 0 0 1-.47-.46c0-.25.21-.46.47-.46h7.02c.26 0 .47.2.47.46zm-12.03-1.97c0 .26-.2.47-.47.47h-6a.47.47 0 0 1-.48-.47c0-.25.21-.46.47-.46h6.01c.26 0 .47.21.47.46zm0-6.88c0 .26-.2.46-.47.46h-1.53v1.05h1.03c.26 0 .47.2.47.46 0 .25-.2.46-.47.46h-1.03v1.5c0 .26-.21.47-.47.47a.47.47 0 0 1-.47-.47v-3.93c0-.25.21-.46.47-.46h2c.26 0 .47.2.47.46zm3.93 3.68c.15.21.09.5-.13.64a.47.47 0 0 1-.65-.13l-.86-1.27h-.78v1.01c0 .26-.21.47-.47.47a.47.47 0 0 1-.47-.47v-3.93c0-.25.2-.46.47-.46h1.25c.95 0 1.72.76 1.72 1.7 0 .58-.3 1.1-.78 1.4zm-.86-2.45a.78.78 0 0 0-.78-.77h-.78v1.54h.78c.43 0 .78-.35.78-.77zm4.45 2.7c0 .26-.21.47-.47.47h-2a.47.47 0 0 1-.47-.47v-3.93c0-.25.2-.46.47-.46h2c.26 0 .47.2.47.46s-.21.46-.47.46h-1.53v1.05h1.03c.26 0 .47.2.47.46 0 .25-.21.46-.47.46h-1.03v1.04H460c.26 0 .47.21.47.47zm3.5 0c0 .26-.2.47-.46.47h-2a.47.47 0 0 1-.48-.47v-3.93c0-.25.21-.46.47-.46h2c.27 0 .48.2.48.46s-.21.46-.47.46h-1.54v1.05h.53c.26 0 .47.2.47.46 0 .25-.2.46-.47.46h-.53v1.04h1.54c.26 0 .47.21.47.47z"></path></defs><desc>Generated with Avocode.</desc><use xlink:href="#a" transform="translate(-445 -830)"></use></svg><svg width="31" height="30" viewBox="0 0 31 30" id="advant-2" y="230"><defs><path id="a" d="M875.04 841.98v7.34h-1.46v5.8a2.9 2.9 0 0 1-2.9 2.88h-22.73a2.9 2.9 0 0 1-2.91-2.88v-19.77a2.9 2.9 0 0 1 2.9-2.88h8.64l7.74-4.25a1.76 1.76 0 0 1 2.37.67l2.02 3.58h1.97c1.6 0 2.9 1.3 2.9 2.88v6.62zm-5.69-8.35l.87 1.53h2.18a1.73 1.73 0 0 0-1.72-1.53zm-15.25 1.53h14.78l-3.2-5.71a.6.6 0 0 0-.8-.23zm18.32 19.96v-5.8h-4.25a3.57 3.57 0 0 1-3.58-3.55v-.25c0-1.95 1.6-3.54 3.58-3.54h4.25v-5.67h-24.11a.58.58 0 0 1-.58-.57c0-.32.26-.58.58-.58h3.4l2.78-1.53h-6.54c-.97 0-1.75.77-1.75 1.72v19.77c0 .95.78 1.73 1.75 1.73h22.73c.96 0 1.74-.78 1.74-1.73zm1.46-12h-5.71a2.41 2.41 0 0 0-2.42 2.4v.25c0 1.32 1.08 2.4 2.42 2.4h5.7zm-3.93 2.57c0 .7-.58 1.27-1.29 1.27-.7 0-1.28-.57-1.28-1.27 0-.7.57-1.27 1.28-1.27.71 0 1.29.57 1.29 1.27z"></path></defs><desc>Generated with Avocode.</desc><use xlink:href="#a" transform="translate(-845 -828)"></use></svg><svg width="30" height="26" viewBox="0 0 30 26" id="advant-3" y="260"><defs><path id="a" d="M1250.94 844.7a.58.58 0 1 1 0 1.16.58.58 0 0 1-.59-.58c0-.32.26-.58.59-.58zm22.19-2.4c.53.44.87 1.1.87 1.85v.01c0 .74-.34 1.4-.87 1.85.53.45.87 1.1.87 1.85v.07c0 .74-.34 1.4-.87 1.85a2.41 2.41 0 0 1-1.59 4.28h-12.19a6.2 6.2 0 0 1-4.05-1.49 1.64 1.64 0 0 1-1.64 1.49h-9.07a.58.58 0 0 1-.59-.58v-14.94c0-.32.26-.58.59-.58h9.07c.75 0 1.39.5 1.59 1.2a14.08 14.08 0 0 0 5.54-6.38c.26-.6.47-1.26.64-2.04.08-.4.28-.77.56-1.06a2.3 2.3 0 0 1 1.64-.68 2.3 2.3 0 0 1 2.3 2.28l.01.68v.93c-.03 1.8-.52 3.53-1.42 5.07h7.02a2.44 2.44 0 0 1 2.46 2.43v.06c0 .74-.34 1.4-.87 1.85zm-19-2.71a.47.47 0 0 0-.47-.47h-8.49v13.78h5.18v-5.03c0-.32.26-.58.59-.58.32 0 .58.26.58.58v5.03h2.14c.26 0 .47-.2.47-.47V839.6zm15.2 2.7c0-.31.26-.57.59-.57h1.62c.71 0 1.29-.57 1.29-1.27v-.06c0-.7-.58-1.27-1.29-1.27h-8.1a.58.58 0 0 1-.52-.32.57.57 0 0 1 .05-.6 9.27 9.27 0 0 0 1.79-5.32v-1.61c0-.61-.51-1.11-1.13-1.11h-.03c-.1 0-.47.02-.76.32-.14.13-.22.3-.27.5-.18.85-.41 1.6-.71 2.25a15.32 15.32 0 0 1-6.55 7.23v10.53l.55.52c.94.9 2.18 1.4 3.49 1.4h12.19c.71 0 1.29-.58 1.29-1.28 0-.7-.58-1.27-1.29-1.27h-1.62a.58.58 0 0 1-.59-.58c0-.32.26-.58.59-.58h1.62c.71 0 1.29-.57 1.29-1.27v-.07c0-.7-.58-1.27-1.29-1.27h-1.62a.58.58 0 0 1-.59-.58c0-.32.26-.58.59-.58h1.62c.71 0 1.29-.57 1.29-1.27v-.01c0-.7-.58-1.27-1.29-1.27h-1.62a.58.58 0 0 1-.59-.58z"></path></defs><desc>Generated with Avocode.</desc><use xlink:href="#a" transform="translate(-1244 -829)"></use></svg><svg viewBox="0 0 129 129" width="129" height="129" id="arrow-down" y="286"><path d="M121.3 34.6c-1.6-1.6-4.2-1.6-5.8 0l-51 51.1-51.1-51.1c-1.6-1.6-4.2-1.6-5.8 0-1.6 1.6-1.6 4.2 0 5.8l53.9 53.9c.8.8 1.8 1.2 2.9 1.2 1 0 2.1-.4 2.9-1.2l53.9-53.9c1.7-1.6 1.7-4.2.1-5.8z"></path></svg><svg viewBox="0 0 477.175 477.175" width="477.175" height="477.175" id="arrow-left" y="415"><path d="M145.188 238.575l215.5-215.5c5.3-5.3 5.3-13.8 0-19.1s-13.8-5.3-19.1 0l-225.1 225.1c-5.3 5.3-5.3 13.8 0 19.1l225.1 225c2.6 2.6 6.1 4 9.5 4s6.9-1.3 9.5-4c5.3-5.3 5.3-13.8 0-19.1l-215.4-215.5z"></path></svg><svg viewBox="0 0 477.175 477.175" width="477.175" height="477.175" id="arrow-right" y="893"><path d="M360.731 229.075l-225.1-225.1c-5.3-5.3-13.8-5.3-19.1 0s-5.3 13.8 0 19.1l215.5 215.5-215.5 215.5c-5.3 5.3-5.3 13.8 0 19.1 2.6 2.6 6.1 4 9.5 4 3.4 0 6.9-1.3 9.5-4l225.1-225.1c5.3-5.2 5.3-13.8.1-19z"></path></svg><svg width="64" height="64" viewBox="0 0 64 64" id="arrow-up" y="1371"><path d="M3.352 48.296l28.56-28.328 28.58 28.347c.397.394.917.59 1.436.59.52 0 1.04-.196 1.436-.59a2.003 2.003 0 0 0 0-2.849l-29.98-29.735c-.2-.2-.494-.375-.757-.475a2.052 2.052 0 0 0-2.166.456L.479 45.447a2.003 2.003 0 0 0 0 2.849 2.045 2.045 0 0 0 2.873 0z"></path></svg><svg width="54.422" height="54.422" viewBox="0 0 139 139" id="close" y="1435"><path class="fil0" d="M7 0l63 63 62-63 7 7-63 63 63 62-7 7-62-63-63 63-7-7 63-62L0 7z"></path></svg><svg width="44.323" height="28.681" viewBox="0 0 87 56" id="dirrect" y="1490"><path class="fil0" d="M87 31H9l22 22-4 3C18 47 9 38 0 28 9 19 18 9 27 0l4 4L9 26h78v5z"></path></svg><svg width="19" height="12" viewBox="0 0 19 12" id="filter" y="1519"><defs><path id="a" d="M95 261v-2h19v2zm0 5v-2h15v2zm0 5v-2h10v2z"></path></defs><desc>Generated with Avocode.</desc><use xlink:href="#a" transform="translate(-95 -259)"></use></svg><svg viewBox="0 0 59 59" width="59" height="59" id="garbage" y="1531"><path d="M29.5 51a1 1 0 0 0 1-1V17a1 1 0 1 0-2 0v33a1 1 0 0 0 1 1zm-10 0a1 1 0 0 0 1-1V17a1 1 0 1 0-2 0v33a1 1 0 0 0 1 1zm20 0a1 1 0 0 0 1-1V17a1 1 0 1 0-2 0v33a1 1 0 0 0 1 1z"></path><path d="M52.5 6H38.456c-.11-1.25-.495-3.358-1.813-4.711C35.809.434 34.751 0 33.499 0H23.5c-1.252 0-2.31.434-3.144 1.289C19.038 2.642 18.653 4.75 18.543 6H6.5a1 1 0 1 0 0 2h2.041l1.915 46.021C10.493 55.743 11.565 59 15.364 59h28.272c3.799 0 4.871-3.257 4.907-4.958L50.459 8H52.5a1 1 0 1 0 0-2zM21.792 2.681C22.24 2.223 22.799 2 23.5 2h9.999c.701 0 1.26.223 1.708.681.805.823 1.128 2.271 1.24 3.319H20.553c.112-1.048.435-2.496 1.239-3.319zm24.752 51.298C46.538 54.288 46.4 57 43.636 57H15.364c-2.734 0-2.898-2.717-2.909-3.042L10.542 8h37.915l-1.913 45.979z"></path></svg><svg preserveAspectRatio="xMidYMid" width="28" height="26" viewBox="0 0 28 26" id="like" y="1590"><path d="M19.837 0a7.913 7.913 0 0 0-3.708.911A8.213 8.213 0 0 0 14 2.517 8.213 8.213 0 0 0 11.871.911 7.913 7.913 0 0 0 8.163 0C3.662 0 0 3.748 0 8.356c0 3.264 1.684 6.73 5.004 10.303 2.772 2.983 6.167 5.469 8.526 7.03L14 26l.47-.311c2.359-1.561 5.753-4.047 8.526-7.03C26.316 15.086 28 11.62 28 8.356 28 3.748 24.338 0 19.837 0zm1.904 17.436c-2.478 2.666-5.496 4.933-7.741 6.449-2.245-1.516-5.264-3.783-7.741-6.449-3.004-3.231-4.527-6.286-4.527-9.08 0-3.63 2.885-6.583 6.431-6.583 2.041 0 3.916.96 5.145 2.634L14 5.35l.692-.943c1.228-1.674 3.104-2.634 5.145-2.634 3.546 0 6.431 2.953 6.431 6.583 0 2.794-1.523 5.849-4.527 9.08z" class="cls-1"></path></svg><svg preserveAspectRatio="xMidYMid" width="17" height="10" viewBox="0 0 17 10" id="mail" y="1616"><path d="M16.988.842C16.987.377 16.596 0 16.117 0h-.001L.87.02a.878.878 0 0 0-.616.248A.825.825 0 0 0 0 .864l.012 8.294c0 .225.091.437.256.596A.878.878 0 0 0 .883 10h.001l15.246-.02c.48-.001.87-.38.869-.845L16.988.842zM15.16.844L8.5 5.326 1.828.862 15.16.844zm-3.843 5.328l3.95 2.966-13.545.018 3.974-2.984a.412.412 0 0 0 .077-.591.445.445 0 0 0-.611-.075L.882 8.719.871 1.247l7.383 4.939a.449.449 0 0 0 .496-.001l7.368-4.958.011 7.491-4.279-3.212a.444.444 0 0 0-.61.075.412.412 0 0 0 .077.591z" class="cls-1"></path></svg><svg preserveAspectRatio="xMidYMid" width="10" height="14.031" viewBox="0 0 10 14.031" id="map" y="1626"><path d="M5.341 13.852a.446.446 0 0 1-.67 0c-.19-.215-4.665-5.31-4.665-8.78C.006 2.275 2.249 0 5.006 0s5 2.275 5 5.072c0 3.47-4.474 8.565-4.665 8.78zM5.006.913c-2.26 0-4.1 1.866-4.1 4.159 0 2.381 2.594 5.961 4.1 7.776 1.506-1.815 4.1-5.395 4.1-7.776 0-2.293-1.839-4.159-4.1-4.159zM2.49 5.072c0-1.407 1.129-2.552 2.516-2.552s2.516 1.145 2.516 2.552c0 1.406-1.129 2.551-2.516 2.551S2.49 6.478 2.49 5.072zm4.131 0c0-.904-.724-1.639-1.615-1.639s-1.615.735-1.615 1.639c0 .903.724 1.638 1.615 1.638s1.615-.735 1.615-1.638z" class="cls-1"></path></svg><svg preserveAspectRatio="xMidYMid" width="54" height="40" viewBox="0 0 54 40" id="mastercard" y="1641"><path d="M51.553 40.007H2.462a2.455 2.455 0 0 1-2.455-2.456V2.463A2.456 2.456 0 0 1 2.462.007h49.091c1.355 0 2.454 1.1 2.454 2.456v35.088a2.455 2.455 0 0 1-2.454 2.456zM33.144 10.592a9.366 9.366 0 0 0-6.137 2.287 9.362 9.362 0 0 0-6.136-2.287c-5.188 0-9.409 4.224-9.409 9.415 0 5.192 4.221 9.416 9.409 9.416a9.362 9.362 0 0 0 6.136-2.287 9.366 9.366 0 0 0 6.137 2.287c5.188 0 9.409-4.224 9.409-9.416 0-5.191-4.221-9.415-9.409-9.415zm0 16.375a6.921 6.921 0 0 1-4.501-1.66 9.367 9.367 0 0 0 1.637-5.3 9.366 9.366 0 0 0-1.637-5.299 6.921 6.921 0 0 1 4.501-1.66c3.835 0 6.954 3.122 6.954 6.959 0 3.838-3.119 6.96-6.954 6.96z" class="cls-1"></path></svg><svg width="459" height="459" viewBox="0 0 459 459" id="menu" y="1681"><path d="M0 382.5h459v-51H0v51zM0 255h459v-51H0v51zM0 76.5v51h459v-51H0z"></path></svg><svg viewBox="0 0 42 42" width="42" height="42" id="minus" y="2140"><path d="M0 19h42v4H0z"></path></svg><svg preserveAspectRatio="xMidYMid" width="10" height="16" viewBox="0 0 10 16" id="phone" y="2182"><path d="M8.706 16H1.284c-.713 0-1.289-.559-1.289-1.242V1.242C-.005.555.575 0 1.284 0h7.422c.712 0 1.289.559 1.289 1.242v13.513c0 .686-.58 1.242-1.289 1.245zm-7.88-1.245a.45.45 0 0 0 .458.441h7.418a.45.45 0 0 0 .458-.441V12.77H.826v1.985zm0-2.782H9.16V2.88H.826v9.093zM9.164 1.242a.45.45 0 0 0-.458-.441H1.284a.45.45 0 0 0-.458.441v.837h8.338v-.837zM5.836 14.421H4.15a.41.41 0 0 1-.417-.402.41.41 0 0 1 .417-.402h1.686a.41.41 0 0 1 .417.402.41.41 0 0 1-.417.402z" class="cls-1"></path></svg><svg viewBox="0 0 42 42" width="42" height="42" id="plus" y="2198"><path d="M42 19H23V0h-4v19H0v4h19v19h4V23h19z"></path></svg><svg preserveAspectRatio="xMidYMid" width="21" height="26" viewBox="0 0 21 26" id="profile" y="2240"><path d="M17.427 24.971C15.586 25.635 13.126 26 10.5 26c-2.626 0-5.086-.365-6.928-1.029C.62 23.907 0 22.364 0 21.256c0-3.656 1.962-6.871 4.91-8.692.359.442.763.851 1.226 1.22-2.646 1.486-4.433 4.279-4.433 7.472 0 1.726 3.864 3.078 8.797 3.078 4.933 0 8.797-1.352 8.797-3.078 0-3.193-1.787-5.986-4.434-7.472a7.956 7.956 0 0 0 1.227-1.22C19.038 14.385 21 17.6 21 21.256c0 1.108-.62 2.651-3.573 3.715zM10.5 13.661c-3.308 0-5.857-3.128-5.857-6.83C4.643 3.13 7.191 0 10.5 0c3.308 0 5.857 3.128 5.857 6.831 0 3.7-2.548 6.83-5.857 6.83zm0-11.995c-2.291 0-4.155 2.317-4.155 5.165 0 2.847 1.864 5.164 4.155 5.164 2.291 0 4.154-2.317 4.154-5.164 0-2.848-1.863-5.165-4.154-5.165z" class="cls-1"></path></svg><svg preserveAspectRatio="xMidYMid" width="26" height="26" viewBox="0 0 26 26" id="search" y="2266"><path d="M25.664 24.137l-6.246-6.246A10.915 10.915 0 0 0 21.9 10.95C21.9 4.905 16.995 0 10.95 0 4.9 0 0 4.905 0 10.95 0 16.995 4.9 21.9 10.95 21.9c2.635 0 5.048-.928 6.936-2.477l6.246 6.241a1.08 1.08 0 0 0 1.532 0 1.074 1.074 0 0 0 0-1.527zM10.95 19.72c-4.842 0-8.776-3.934-8.776-8.77 0-4.836 3.934-8.776 8.776-8.776 4.836 0 8.776 3.94 8.776 8.776s-3.94 8.77-8.776 8.77z" class="cls-1"></path></svg><svg preserveAspectRatio="xMidYMid" width="10" height="18" viewBox="0 0 10 18" id="soc-facebook" y="2292"><path d="M9.623.003L7.225-.001c-2.695 0-4.436 1.739-4.436 4.43v2.043H.377A.372.372 0 0 0 0 6.839v2.96c0 .202.169.367.377.367h2.412v7.467c0 .203.168.367.377.367h3.146a.372.372 0 0 0 .377-.367v-7.467h2.82a.373.373 0 0 0 .377-.367l.001-2.96a.363.363 0 0 0-.11-.259.383.383 0 0 0-.267-.108H6.689V4.74c0-.832.204-1.254 1.318-1.254l1.616-.001A.372.372 0 0 0 10 3.118V.37a.373.373 0 0 0-.377-.367z" class="cls-1"></path></svg><svg preserveAspectRatio="xMidYMid" width="18" height="18" viewBox="0 0 18 18" id="soc-instagram" y="2310"><path d="M16.2 0H1.8C.81 0 0 .81 0 1.8v14.4c0 .99.81 1.8 1.8 1.8h14.4c.99 0 1.8-.81 1.8-1.8V1.8c0-.99-.81-1.8-1.8-1.8zM9 5.4c1.98 0 3.6 1.62 3.6 3.6s-1.62 3.6-3.6 3.6A3.61 3.61 0 0 1 5.4 9c0-1.98 1.62-3.6 3.6-3.6zM2.25 16.2c-.27 0-.45-.18-.45-.45V8.1h1.89c-.09.27-.09.63-.09.9 0 2.97 2.43 5.4 5.4 5.4s5.4-2.43 5.4-5.4c0-.27 0-.63-.09-.9h1.89v7.65c0 .27-.18.45-.45.45H2.25zM16.2 4.05c0 .27-.18.45-.45.45h-1.8c-.27 0-.45-.18-.45-.45v-1.8c0-.27.18-.45.45-.45h1.8c.27 0 .45.18.45.45v1.8z" class="cls-1"></path></svg><svg preserveAspectRatio="xMidYMid" width="18" height="15" viewBox="0 0 18 15" id="soc-twitter" y="2328"><path d="M17.503.271a7.298 7.298 0 0 1-2.346.919 3.639 3.639 0 0 0-2.695-1.196c-2.04 0-3.693 1.696-3.693 3.787 0 .296.033.586.096.862-3.069-.157-5.79-1.666-7.611-3.957a3.836 3.836 0 0 0-.5 1.904c0 1.314.653 2.474 1.643 3.152a3.622 3.622 0 0 1-1.673-.476v.048c0 1.835 1.273 3.365 2.962 3.714a3.628 3.628 0 0 1-1.668.064c.47 1.505 1.833 2.6 3.448 2.631A7.289 7.289 0 0 1 0 13.292a10.264 10.264 0 0 0 5.66 1.702c6.793 0 10.507-5.772 10.507-10.777l-.013-.491A7.532 7.532 0 0 0 18 1.768a7.222 7.222 0 0 1-2.12.597A3.791 3.791 0 0 0 17.503.271z" class="cls-1"></path></svg><svg preserveAspectRatio="xMidYMid" width="21.15" height="11.94" viewBox="0 0 21.15 11.94" id="soc-vk" y="2343"><path d="M20.251 9.671c-.63-.754-1.371-1.397-2.072-2.079-.632-.616-.672-.973-.164-1.683.555-.775 1.152-1.521 1.712-2.293.522-.721 1.057-1.44 1.332-2.304.174-.549.02-.792-.545-.888a1.73 1.73 0 0 0-.297-.018l-3.35-.004c-.413-.006-.641.174-.787.539-.197.493-.4.986-.635 1.462-.533 1.079-1.127 2.122-1.962 3.005-.183.195-.386.441-.694.34-.384-.14-.497-.772-.491-.986L12.294.904C12.22.353 12.097.107 11.549 0L8.068.001c-.464 0-.697.179-.945.469-.143.167-.186.276.108.331.577.11.903.483.989 1.061.139.923.129 1.85.049 2.777-.023.27-.07.54-.178.793-.168.397-.44.478-.796.234-.324-.222-.551-.534-.773-.847-.835-1.177-1.501-2.446-2.044-3.779-.157-.385-.427-.619-.836-.625A84.23 84.23 0 0 0 .626.416C.021.427-.16.72.087 1.267 1.182 3.697 2.4 6.059 3.991 8.21c.817 1.105 1.754 2.08 2.966 2.77 1.373.784 2.851 1.019 4.407.946.729-.034.948-.223.982-.948.023-.495.079-.988.324-1.433.241-.438.605-.521 1.026-.249.21.136.387.309.554.492.41.448.806.909 1.232 1.342.534.542 1.166.862 1.962.797h3.08c.496-.032.753-.639.468-1.191-.2-.387-.462-.732-.741-1.065z" class="cls-1"></path></svg><svg preserveAspectRatio="xMidYMid" width="64" height="40" viewBox="0 0 64 40" id="visa" y="2355"><path d="M-.007 39.99V.007h64.012V39.99H-.007zm23.125-26.66l-2.864 6.185a63.895 63.895 0 0 0-1.055 2.402 97.14 97.14 0 0 0-.189-2.252l-.585-6.335h-5.782l6.015 4.857-3.574-2.291 1.473 10.771h3.62l6.744-13.337h-3.803zm5.478 0l-2.483 13.337h3.406l2.48-13.337h-3.403zm12.608.479c-.812-.457-1.822-.682-3.084-.682-3.084 0-5.24 1.839-5.24 4.469 0 1.909 1.474 2.968 2.765 3.68 1.217.641 1.455 1.008 1.455 1.426 0 .799-.851 1.086-1.575 1.086a5.322 5.322 0 0 1-2.707-.747l-.386-.235-1.149 2.894.233.182c.797.61 2.2.974 3.754.974 3.221 0 5.383-1.855 5.383-4.616 0-1.511-.865-2.709-2.638-3.659-.996-.567-1.599-.949-1.599-1.431 0-.448.466-.934 1.561-.934a4.44 4.44 0 0 1 2.04.51l.388.217 1.086-2.973-.287-.161zm9.402-.479H46.65l-6.361 13.337h3.647l1.462-3.257h2.95l.254 3.257h3.535L50.606 13.33zm-3.117 5.098c.137-.3.277-.64.413-.997.026.318.049.614.065.871l.205 2.281h-1.655l.972-2.155z" class="cls-1"></path></svg><svg preserveAspectRatio="xMidYMid" width="23" height="26" viewBox="0 0 23 26" id="Ñart" y="2395"><path d="M22.172 26H.819a.838.838 0 0 1-.607-.26.806.806 0 0 1-.219-.614L1.376 7.245a.822.822 0 0 1 .826-.753h2.659C4.868 2.912 7.837 0 11.487 0c3.65 0 6.619 2.912 6.625 6.492h2.66c.433 0 .793.328.826.752l1.37 17.72a.784.784 0 0 1 .032.222c0 .45-.371.814-.828.814zM11.487 1.626c-2.737 0-4.963 2.181-4.969 4.866h9.938c-.007-2.685-2.232-4.866-4.969-4.866zm8.517 6.492h-1.891v1.626a.821.821 0 0 1-.828.813.821.821 0 0 1-.828-.813V8.118H6.516v1.626a.821.821 0 0 1-.828.813.821.821 0 0 1-.828-.813V8.118H2.97L1.712 24.374h19.549L20.004 8.118z" class="cls-1"></path></svg></svg>