<svg xmlns="http://www.w3.org/2000/svg" xmlns:xlink="http://www.w3.org/1999/xlink" preserveAspectRatio="xMidYMid" width="64" height="40" viewBox="0 0 64 40">
  <defs>
    
  </defs>
  <path d="M-0.007,39.990 L-0.007,0.007 L64.005,0.007 L64.005,39.990 L-0.007,39.990 ZM23.118,13.330 L20.254,19.515 C19.849,20.393 19.499,21.189 19.199,21.917 C19.143,21.157 19.083,20.418 19.010,19.665 L18.425,13.330 L12.643,13.330 L18.658,18.187 L15.084,15.896 L16.557,26.667 L20.177,26.667 L26.921,13.330 L23.118,13.330 ZM28.596,13.330 L26.113,26.667 L29.519,26.667 L31.999,13.330 L28.596,13.330 ZM41.204,13.809 C40.392,13.352 39.382,13.127 38.120,13.127 C35.036,13.127 32.880,14.966 32.880,17.596 C32.880,19.505 34.354,20.564 35.645,21.276 C36.862,21.917 37.100,22.284 37.100,22.702 C37.100,23.501 36.249,23.788 35.525,23.788 C34.577,23.788 33.590,23.514 32.818,23.041 L32.432,22.806 L31.283,25.700 L31.516,25.882 C32.313,26.492 33.716,26.856 35.270,26.856 C38.491,26.856 40.653,25.001 40.653,22.240 C40.653,20.729 39.788,19.531 38.015,18.581 C37.019,18.014 36.416,17.632 36.416,17.150 C36.416,16.702 36.882,16.216 37.977,16.216 C39.043,16.216 39.865,16.640 40.017,16.726 L40.405,16.943 L41.491,13.970 L41.204,13.809 ZM50.606,13.330 L46.650,13.330 L40.289,26.667 L43.936,26.667 L45.398,23.410 L48.348,23.410 L48.602,26.667 L52.137,26.667 L50.606,13.330 ZM47.489,18.428 C47.626,18.128 47.766,17.788 47.902,17.431 C47.928,17.749 47.951,18.045 47.967,18.302 L48.172,20.583 L46.517,20.583 L47.489,18.428 Z" class="cls-1"/>
</svg>
