<svg xmlns="http://www.w3.org/2000/svg" xmlns:xlink="http://www.w3.org/1999/xlink" preserveAspectRatio="xMidYMid" width="23" height="26" viewBox="0 0 23 26">
  <defs>
    
  </defs>
  <path d="M22.172,26.000 C22.166,26.000 22.160,26.000 22.155,26.000 L0.819,26.000 C0.589,26.000 0.368,25.905 0.212,25.740 C0.055,25.574 -0.024,25.351 -0.007,25.126 L1.376,7.245 C1.408,6.820 1.768,6.492 2.202,6.492 L4.861,6.492 C4.868,2.912 7.837,-0.000 11.487,-0.000 C15.137,-0.000 18.106,2.912 18.112,6.492 L20.772,6.492 C21.205,6.492 21.565,6.820 21.598,7.244 L22.968,24.964 C22.989,25.035 23.000,25.110 23.000,25.186 C23.000,25.636 22.629,26.000 22.172,26.000 ZM11.487,1.626 C8.750,1.626 6.524,3.807 6.518,6.492 L16.456,6.492 C16.449,3.807 14.224,1.626 11.487,1.626 ZM20.004,8.118 L18.113,8.118 L18.113,9.744 C18.113,10.192 17.742,10.557 17.285,10.557 C16.828,10.557 16.457,10.192 16.457,9.744 L16.457,8.118 L6.516,8.118 L6.516,9.744 C6.516,10.192 6.145,10.557 5.688,10.557 C5.231,10.557 4.860,10.192 4.860,9.744 L4.860,8.118 L2.970,8.118 L1.712,24.374 L21.261,24.374 L20.004,8.118 Z" class="cls-1"/>
</svg>
